<svg id="Layer_1" data-name="Layer 1" xmlns="http://www.w3.org/2000/svg" xmlns:xlink="http://www.w3.org/1999/xlink" viewBox="0 0 100 100"><defs><style>.cls-1{fill:url(#linear-gradient);}.cls-2{fill:url(#linear-gradient-2);}</style><linearGradient id="linear-gradient" x1="1.82" y1="33.4" x2="98.18" y2="33.4" gradientUnits="userSpaceOnUse"><stop offset="0" stop-color="#d51f26"/><stop offset="1" stop-color="#ea136b"/></linearGradient><linearGradient id="linear-gradient-2" x1="17.57" y1="55.38" x2="83.87" y2="55.38" xlink:href="#linear-gradient"/></defs><path class="cls-1" d="M97.89,36.34,80.18,17.54a1.07,1.07,0,0,0-1.5,0l-7.44,7a1.05,1.05,0,0,0,0,1.5l17.71,18.8a1.05,1.05,0,0,0,1.5,0l7.44-7A1.06,1.06,0,0,0,97.89,36.34Zm-6.47,2.14a2.31,2.31,0,1,1,.1-3.27A2.32,2.32,0,0,1,91.42,38.48ZM20.06,20.12a1.06,1.06,0,0,0-1.49.18L2,41.58a1.05,1.05,0,0,0,.19,1.48l8.11,6.3a1.05,1.05,0,0,0,1.48-.18L28.35,27.9a1.06,1.06,0,0,0-.18-1.49ZM12.28,42.28A2.32,2.32,0,1,1,11.87,39,2.32,2.32,0,0,1,12.28,42.28Z"/><path class="cls-2" d="M73.77,62.89,55.61,48.71l-3.31,3c-4.68,4.21-8.89,5.33-12.07,5.33A12.74,12.74,0,0,1,38,56.88a12.43,12.43,0,0,1-8.67-6,6.24,6.24,0,0,1,1.17-8L43.53,31a8.49,8.49,0,0,0-11.87,1.54L18.92,49a6.35,6.35,0,0,0-1.3,4.7l.82,6.68a6.36,6.36,0,0,0,2.4,4.25L43.17,82.07a3.43,3.43,0,0,0,4.63-.39l1-1.1a3.43,3.43,0,0,0-.33-4.94l3.75,3.14a3.43,3.43,0,0,0,4.58-.16L58,77.51a3.42,3.42,0,0,0-.18-5.1l2.77,2.31a3.41,3.41,0,0,0,4.59-.18l1-1a3.43,3.43,0,0,0-.15-5l1.83,1.59a3.43,3.43,0,0,0,4.87-.4l1.59-1.9A3.43,3.43,0,0,0,73.77,62.89Zm8.88-17L67.31,30.27A4.2,4.2,0,0,0,64.83,29L57,28a4.25,4.25,0,0,0-3.4,1.06l-1.85,1.68L34.07,46.82a1,1,0,0,0-.24,1.3l.11.19a7.12,7.12,0,0,0,5,3.34c3.05.52,6.45-.8,9.84-3.84l6.6-6L76.12,58l6.48-6.07A4.25,4.25,0,0,0,82.65,45.92Z"/></svg>