<svg id="Layer_1" data-name="Layer 1" xmlns="http://www.w3.org/2000/svg" xmlns:xlink="http://www.w3.org/1999/xlink" viewBox="0 0 100 100"><defs><style>.cls-1{fill:url(#linear-gradient);}.cls-2{fill:url(#linear-gradient-2);}.cls-3{font-size:13.41px;fill:#fff;font-family:WorkSans-Medium, Work Sans;font-weight:500;}</style><linearGradient id="linear-gradient" x1="13.61" y1="71.26" x2="98.18" y2="71.26" gradientUnits="userSpaceOnUse"><stop offset="0" stop-color="#d51f26"/><stop offset="1" stop-color="#ea136b"/></linearGradient><linearGradient id="linear-gradient-2" x1="1.82" y1="50" x2="89.23" y2="50" xlink:href="#linear-gradient"/></defs><path class="cls-1" d="M96.71,58.09a6.85,6.85,0,0,0-9.59-1.15L67.77,72.1a5.48,5.48,0,0,1-3.37,1.16l-13.86,0a3.42,3.42,0,1,1,0-6.84H62.15A6.83,6.83,0,0,0,69,59.59h0a6.83,6.83,0,0,0-6.84-6.82l-26.6,0H33.75a16.35,16.35,0,0,0-10.12,3.5l-9.49,7.45a1.36,1.36,0,0,0-.23,1.92L32.34,89a1.37,1.37,0,0,0,1.06.51l22.3.19,6.16,0a16.33,16.33,0,0,0,10.31-3.53L95.58,67.7A6.84,6.84,0,0,0,96.71,58.09Z"/><path class="cls-2" d="M44.55,17.16a4.05,4.05,0,1,0,4.05,4.05A4.06,4.06,0,0,0,44.55,17.16Zm43.75-13a5.63,5.63,0,0,0-1.48-1.48,5.41,5.41,0,0,0-3-.93H35.84a5.41,5.41,0,0,0-3.05.93,5.48,5.48,0,0,0-1.48,1.48,5.42,5.42,0,0,0-.93,3.06V35.5A5.46,5.46,0,0,0,35.84,41H83.77a5.46,5.46,0,0,0,5.46-5.47V7.2A5.42,5.42,0,0,0,88.3,4.14Zm-5.9,25a6.8,6.8,0,0,0-5.05,5.05H42.26a6.8,6.8,0,0,0-5-5.05V13.61a6.77,6.77,0,0,0,5-5h35.1a6.8,6.8,0,0,0,5.05,5ZM8.54,69.91a1.36,1.36,0,0,0-1.92-.23L2.34,73.07A1.37,1.37,0,0,0,2.11,75l18,22.76A1.36,1.36,0,0,0,22,98l4.28-3.39a1.36,1.36,0,0,0,.23-1.92ZM75.06,17.16a4.05,4.05,0,1,0,4,4.05A4.06,4.06,0,0,0,75.06,17.16ZM59.8,12.63c-4.21,0-7.63,3.31-7.63,8.72s3.42,8.72,7.63,8.72,7.63-3.24,7.63-8.72S64,12.63,59.8,12.63Z"/><text class="cls-3" transform="translate(55.9 26.19)">₹</text></svg>