<svg id="Layer_1" data-name="Layer 1" xmlns="http://www.w3.org/2000/svg" xmlns:xlink="http://www.w3.org/1999/xlink" viewBox="0 0 100 100"><defs><style>.cls-1{fill:url(#linear-gradient);}.cls-2{fill:url(#linear-gradient-2);}.cls-3{fill:url(#linear-gradient-3);}.cls-4{font-size:29.11px;fill:#fff;font-family:WorkSans-Medium, Work Sans;font-weight:500;}</style><linearGradient id="linear-gradient" x1="1.54" y1="58.21" x2="98.46" y2="58.21" gradientUnits="userSpaceOnUse"><stop offset="0" stop-color="#d51f26"/><stop offset="1" stop-color="#ea136b"/></linearGradient><linearGradient id="linear-gradient-2" x1="19.05" y1="50" x2="80.95" y2="50" xlink:href="#linear-gradient"/><linearGradient id="linear-gradient-3" x1="28.06" y1="28.06" x2="73.41" y2="28.06" xlink:href="#linear-gradient"/></defs><path class="cls-1" d="M29.39,50.87A5.63,5.63,0,0,0,21,51.3a5.85,5.85,0,0,0,.61,7.76l6.19,6.19a3.13,3.13,0,1,1-4.42,4.42l-6-6a12.75,12.75,0,0,1-3.73-8.54l.05-14.6A6.1,6.1,0,0,0,7,34.46a6.33,6.33,0,0,0-5.46,6.41v15A14.62,14.62,0,0,0,5,65.33l13.69,16.2a1.22,1.22,0,0,0,.93.43l25,0a1.22,1.22,0,0,0,1.22-1.22V73.4a14.62,14.62,0,0,0-4.28-10.34ZM93,34.46a6.1,6.1,0,0,0-6.73,6.06l0,14.6a12.75,12.75,0,0,1-3.73,8.54l-6,6a3.13,3.13,0,0,1-4.42-4.42l6.19-6.19A5.85,5.85,0,0,0,79,51.3a5.63,5.63,0,0,0-8.35-.43L58.42,63.06A14.62,14.62,0,0,0,54.14,73.4v7.38A1.22,1.22,0,0,0,55.36,82l25,0a1.22,1.22,0,0,0,.93-.43L95,65.33a14.62,14.62,0,0,0,3.45-9.44v-15A6.33,6.33,0,0,0,93,34.46Z"/><path class="cls-2" d="M45.29,88.73h-25A1.21,1.21,0,0,0,19.05,90v4.87A1.22,1.22,0,0,0,20.26,96h25a1.22,1.22,0,0,0,1.22-1.22V90A1.21,1.21,0,0,0,45.29,88.73Zm34.45,0h-25A1.21,1.21,0,0,0,53.49,90v4.87A1.22,1.22,0,0,0,54.71,96h25A1.22,1.22,0,0,0,81,94.82V90A1.21,1.21,0,0,0,79.74,88.73ZM75.11,28.34A24.38,24.38,0,1,0,50.73,52.71,24.37,24.37,0,0,0,75.11,28.34ZM49.19,24l5.63,2.89a8.11,8.11,0,0,1,4.32,8.61,7.84,7.84,0,0,1-4.88,6.14v1a3,3,0,0,1-6.09,0v-.82a9.8,9.8,0,0,1-6.2-5.5,3,3,0,1,1,5.59-2.43,3.73,3.73,0,0,0,3.76,2.23l.27,0a1.81,1.81,0,0,0,1.53-1.59A2.05,2.05,0,0,0,52,32.33l-5.63-2.9a8.11,8.11,0,0,1-4.28-8.77,7.88,7.88,0,0,1,6.05-6.36v-.86a3,3,0,1,1,6.09,0v1.5a9.76,9.76,0,0,1,5,5,3,3,0,1,1-5.59,2.43,3.78,3.78,0,0,0-3.76-2.24,1.91,1.91,0,0,0-1.77,1.62A2,2,0,0,0,49.19,24Z"/><circle class="cls-3" cx="50.73" cy="28.06" r="22.67"/><text class="cls-4" transform="translate(42.45 39.32)">₹</text></svg>