<svg id="Layer_1" data-name="Layer 1" xmlns="http://www.w3.org/2000/svg" xmlns:xlink="http://www.w3.org/1999/xlink" viewBox="0 0 100 100"><defs><style>.cls-1{fill:url(#linear-gradient);}.cls-2{fill:url(#linear-gradient-2);}.cls-3{fill:url(#linear-gradient-3);}.cls-4{font-size:25.63px;fill:#fff;font-family:WorkSans-Medium, Work Sans;font-weight:500;}</style><linearGradient id="linear-gradient" x1="52.83" y1="24.6" x2="98.18" y2="24.6" gradientUnits="userSpaceOnUse"><stop offset="0" stop-color="#d51f26"/><stop offset="1" stop-color="#ea136b"/></linearGradient><linearGradient id="linear-gradient-2" x1="1.81" y1="52.72" x2="77.39" y2="52.72" xlink:href="#linear-gradient"/><linearGradient id="linear-gradient-3" x1="52.84" y1="24.6" x2="98.19" y2="24.6" xlink:href="#linear-gradient"/></defs><path class="cls-1" d="M75.5,1.93A22.68,22.68,0,1,0,98.18,24.6,22.67,22.67,0,0,0,75.5,1.93ZM74.4,20.26l5.12,2.63a7.74,7.74,0,0,1,4.13,8.23,7.5,7.5,0,0,1-4.43,5.78v.69a3.15,3.15,0,0,1-6.29,0v-.48A9.33,9.33,0,0,1,67.31,32a3.15,3.15,0,0,1,5.78-2.52,3,3,0,0,0,3,1.81,1.35,1.35,0,0,0,1.31-1.16,1.51,1.51,0,0,0-.8-1.63l-5.12-2.63a7.76,7.76,0,0,1-4.09-8.4,7.55,7.55,0,0,1,5.5-6V11a3.15,3.15,0,1,1,6.29,0v1.17a9.13,9.13,0,0,1,4.49,4.63,3.15,3.15,0,0,1-5.77,2.51,3,3,0,0,0-3-1.81,1.35,1.35,0,0,0-1.27,1.16A1.45,1.45,0,0,0,74.4,20.26Z"/><path class="cls-2" d="M73.2,55.31A7.09,7.09,0,0,0,67.74,57a5.92,5.92,0,0,0-4.62-4.21A7.06,7.06,0,0,0,57.9,54.3a6.46,6.46,0,0,0-4.85-4,7.1,7.1,0,0,0-5.89,2.21V36.56a5.17,5.17,0,0,0-3.39-5,5.06,5.06,0,0,0-6.69,4.78V76.66a5,5,0,0,1-5-5V67.07a1.75,1.75,0,0,0-1.75-1.75H28.78A6.81,6.81,0,0,0,22,72.13V84.57a7.56,7.56,0,0,0,2.57,5.68l6.79,6a7.55,7.55,0,0,0,5,1.87H64.19a7.55,7.55,0,0,0,5.34-2.21l5.65-5.65a7.55,7.55,0,0,0,2.21-5.35V60.55A5.23,5.23,0,0,0,73.2,55.31Zm-42.41-5.1h-6.3A2.52,2.52,0,0,1,22,47.69V17.45a2.52,2.52,0,0,1,2.52-2.52H48.22a29.17,29.17,0,0,1,4-7.55H11.89A10.08,10.08,0,0,0,1.81,17.45V47.69A10.08,10.08,0,0,0,11.89,57.76h18.9ZM13.88,36.81a4.24,4.24,0,1,1,4.24-4.24A4.24,4.24,0,0,1,13.88,36.81Z"/><circle class="cls-3" cx="75.51" cy="24.6" r="22.67"/><text class="cls-4" transform="translate(67.81 34.27)">₹</text></svg>